<svg width="24" height="25" viewBox="0 0 24 25" fill="none" xmlns="http://www.w3.org/2000/svg">
<path fill-rule="evenodd" clip-rule="evenodd" d="M7.79427 1.95081C8.91226 1.89657 9.26872 1.88452 12.1166 1.88452C14.9645 1.88452 15.3209 1.89758 16.438 1.95081C17.555 2.00403 18.3175 2.19184 18.9847 2.46401C19.6833 2.7422 20.3171 3.17706 20.8413 3.73948C21.3751 4.29084 21.7868 4.9577 22.0499 5.69486C22.3091 6.39788 22.4864 7.20132 22.5378 8.37636C22.5893 9.55642 22.6007 9.93204 22.6007 12.9319C22.6007 15.9328 22.5884 16.3084 22.5378 17.4864C22.4873 18.6615 22.3091 19.4649 22.0499 20.1679C21.7868 20.9052 21.3744 21.5732 20.8413 22.1253C20.3171 22.6877 19.6833 23.1216 18.9847 23.3988C18.3175 23.672 17.555 23.8588 16.4399 23.913C15.3209 23.9672 14.9645 23.9793 12.1166 23.9793C9.26872 23.9793 8.91226 23.9662 7.79427 23.913C6.67914 23.8598 5.91665 23.672 5.24948 23.3988C4.54982 23.1216 3.91591 22.687 3.39188 22.1253C2.8585 21.5736 2.44574 20.906 2.18239 20.1689C1.9241 19.4659 1.74682 18.6625 1.69535 17.4874C1.64388 16.3074 1.63245 15.9318 1.63245 12.9319C1.63245 9.93103 1.64484 9.55542 1.69535 8.37837C1.74587 7.20132 1.9241 6.39788 2.18239 5.69486C2.44613 4.95778 2.85921 4.29015 3.39283 3.73847C3.91612 3.17656 4.5494 2.74164 5.24853 2.46401C5.9157 2.19184 6.67818 2.00504 7.79331 1.95081H7.79427ZM16.3531 3.93933C15.2475 3.88611 14.9159 3.87506 12.1166 3.87506C9.31733 3.87506 8.98565 3.88611 7.88005 3.93933C6.85737 3.98855 6.30266 4.16832 5.93285 4.31997C5.44391 4.52083 5.09412 4.75885 4.72718 5.14551C4.37934 5.50209 4.11164 5.93618 3.94372 6.41596C3.79981 6.80563 3.6292 7.39013 3.5825 8.46776C3.53198 9.63275 3.5215 9.98225 3.5215 12.9319C3.5215 15.8816 3.53198 16.2311 3.5825 17.396C3.6292 18.4737 3.79981 19.0582 3.94372 19.4478C4.11147 19.9269 4.37929 20.3618 4.72718 20.7183C5.06553 21.0849 5.47822 21.3671 5.93285 21.5438C6.30266 21.6955 6.85737 21.8753 7.88005 21.9245C8.98565 21.9777 9.31638 21.9887 12.1166 21.9887C14.9168 21.9887 15.2475 21.9777 16.3531 21.9245C17.3758 21.8753 17.9305 21.6955 18.3003 21.5438C18.7893 21.343 19.1391 21.105 19.506 20.7183C19.8539 20.3618 20.1217 19.9269 20.2895 19.4478C20.4334 19.0582 20.604 18.4737 20.6507 17.396C20.7012 16.2311 20.7117 15.8816 20.7117 12.9319C20.7117 9.98225 20.7012 9.63275 20.6507 8.46776C20.604 7.39013 20.4334 6.80563 20.2895 6.41596C20.0988 5.90075 19.873 5.53217 19.506 5.14551C19.1676 4.77901 18.7556 4.49694 18.3003 4.31997C17.9305 4.16832 17.3758 3.98855 16.3531 3.93933V3.93933ZM10.7775 16.3375C11.5253 16.6655 12.3581 16.7098 13.1335 16.4628C13.9089 16.2157 14.5788 15.6927 15.0289 14.9829C15.479 14.2732 15.6813 13.4209 15.6012 12.5715C15.5211 11.7221 15.1637 10.9283 14.5899 10.3257C14.2241 9.94055 13.7819 9.64562 13.295 9.46217C12.808 9.27872 12.2886 9.21131 11.774 9.26479C11.2593 9.31827 10.7624 9.49132 10.3189 9.77148C9.87533 10.0516 9.49627 10.4319 9.20896 10.885C8.92166 11.338 8.73326 11.8526 8.65732 12.3915C8.58138 12.9305 8.6198 13.4805 8.76981 14.002C8.91982 14.5235 9.17768 15.0034 9.52484 15.4072C9.872 15.8111 10.2998 16.1288 10.7775 16.3375ZM8.30608 8.91668C8.80649 8.38939 9.40055 7.97113 10.0544 7.68576C10.7082 7.4004 11.4089 7.25352 12.1166 7.25352C12.8243 7.25352 13.525 7.4004 14.1788 7.68576C14.8326 7.97113 15.4267 8.38939 15.9271 8.91668C16.4275 9.44397 16.8245 10.0699 17.0953 10.7589C17.3661 11.4478 17.5055 12.1862 17.5055 12.9319C17.5055 13.6776 17.3661 14.416 17.0953 15.1049C16.8245 15.7939 16.4275 16.4198 15.9271 16.9471C14.9165 18.012 13.5458 18.6103 12.1166 18.6103C10.6874 18.6103 9.31669 18.012 8.30608 16.9471C7.29547 15.8822 6.72772 14.4379 6.72772 12.9319C6.72772 11.4259 7.29547 9.98158 8.30608 8.91668V8.91668ZM18.7006 8.09918C18.8246 7.97592 18.9239 7.82769 18.9926 7.66328C19.0612 7.49887 19.0979 7.32161 19.1004 7.142C19.1029 6.96239 19.0711 6.78408 19.007 6.61763C18.943 6.45118 18.8478 6.29997 18.7273 6.17295C18.6068 6.04594 18.4633 5.9457 18.3053 5.87817C18.1473 5.81064 17.9781 5.77719 17.8076 5.77981C17.6372 5.78243 17.469 5.82106 17.3129 5.89341C17.1569 5.96576 17.0163 6.07037 16.8993 6.20103C16.6718 6.45515 16.5472 6.79269 16.5521 7.142C16.5569 7.49131 16.6907 7.82488 16.9252 8.0719C17.1596 8.31892 17.4762 8.45995 17.8076 8.46504C18.1391 8.47014 18.4595 8.33889 18.7006 8.09918V8.09918Z" fill="white"/>
</svg>
