<svg width="36" height="36" viewBox="0 0 36 36" fill="none" xmlns="http://www.w3.org/2000/svg">
<path fill-rule="evenodd" clip-rule="evenodd" d="M5.3999 12.6C5.3999 12.1226 5.58954 11.6648 5.92711 11.3272C6.26468 10.9896 6.72251 10.8 7.1999 10.8H28.7999C29.2773 10.8 29.7351 10.9896 30.0727 11.3272C30.4103 11.6648 30.5999 12.1226 30.5999 12.6C30.5999 13.0774 30.4103 13.5352 30.0727 13.8728C29.7351 14.2103 29.2773 14.4 28.7999 14.4H7.1999C6.72251 14.4 6.26468 14.2103 5.92711 13.8728C5.58954 13.5352 5.3999 13.0774 5.3999 12.6ZM5.3999 23.4C5.3999 22.9226 5.58954 22.4648 5.92711 22.1272C6.26468 21.7896 6.72251 21.6 7.1999 21.6H28.7999C29.2773 21.6 29.7351 21.7896 30.0727 22.1272C30.4103 22.4648 30.5999 22.9226 30.5999 23.4C30.5999 23.8774 30.4103 24.3352 30.0727 24.6728C29.7351 25.0103 29.2773 25.2 28.7999 25.2H7.1999C6.72251 25.2 6.26468 25.0103 5.92711 24.6728C5.58954 24.3352 5.3999 23.8774 5.3999 23.4Z" fill="white"/>
</svg>
